<?xml version="1.0" encoding="UTF-8"?>
<!--Generator: Apple Native CoreSVG 123-->
<!DOCTYPE svg
PUBLIC "-//W3C//DTD SVG 1.1//EN"
       "http://www.w3.org/Graphics/SVG/1.1/DTD/svg11.dtd">
<svg version="1.1" xmlns="http://www.w3.org/2000/svg" xmlns:xlink="http://www.w3.org/1999/xlink" width="3300" height="2200">
 <!--glyph: "", point size: 1.000000, font version: "Version 15.0d4e20", template writer version: "2"-->
 <g id="Notes">
  <rect height="2200" id="artboard" style="fill:white;opacity:1" width="3300" x="0" y="0"/>
  <line id="" style="fill:none;stroke:black;opacity:1;stroke-width:0.5;" x1="263" x2="3036" y1="292" y2="292"/>
  <text style="stroke:none;fill:black;font-family:-apple-system,&quot;SF Pro Display&quot;,&quot;SF Pro Text&quot;,Helvetica,sans-serif;font-weight:bold;" transform="matrix(1 0 0 1 263 322)">Weight/Scale Variations</text>
  <text style="stroke:none;fill:black;font-family:-apple-system,&quot;SF Pro Display&quot;,&quot;SF Pro Text&quot;,Helvetica,sans-serif;text-anchor:middle;" transform="matrix(1 0 0 1 559.711 322)">Ultralight</text>
  <text style="stroke:none;fill:black;font-family:-apple-system,&quot;SF Pro Display&quot;,&quot;SF Pro Text&quot;,Helvetica,sans-serif;text-anchor:middle;" transform="matrix(1 0 0 1 856.422 322)">Thin</text>
  <text style="stroke:none;fill:black;font-family:-apple-system,&quot;SF Pro Display&quot;,&quot;SF Pro Text&quot;,Helvetica,sans-serif;text-anchor:middle;" transform="matrix(1 0 0 1 1153.13 322)">Light</text>
  <text style="stroke:none;fill:black;font-family:-apple-system,&quot;SF Pro Display&quot;,&quot;SF Pro Text&quot;,Helvetica,sans-serif;text-anchor:middle;" transform="matrix(1 0 0 1 1449.84 322)">Regular</text>
  <text style="stroke:none;fill:black;font-family:-apple-system,&quot;SF Pro Display&quot;,&quot;SF Pro Text&quot;,Helvetica,sans-serif;text-anchor:middle;" transform="matrix(1 0 0 1 1746.56 322)">Medium</text>
  <text style="stroke:none;fill:black;font-family:-apple-system,&quot;SF Pro Display&quot;,&quot;SF Pro Text&quot;,Helvetica,sans-serif;text-anchor:middle;" transform="matrix(1 0 0 1 2043.27 322)">Semibold</text>
  <text style="stroke:none;fill:black;font-family:-apple-system,&quot;SF Pro Display&quot;,&quot;SF Pro Text&quot;,Helvetica,sans-serif;text-anchor:middle;" transform="matrix(1 0 0 1 2339.98 322)">Bold</text>
  <text style="stroke:none;fill:black;font-family:-apple-system,&quot;SF Pro Display&quot;,&quot;SF Pro Text&quot;,Helvetica,sans-serif;text-anchor:middle;" transform="matrix(1 0 0 1 2636.69 322)">Heavy</text>
  <text style="stroke:none;fill:black;font-family:-apple-system,&quot;SF Pro Display&quot;,&quot;SF Pro Text&quot;,Helvetica,sans-serif;text-anchor:middle;" transform="matrix(1 0 0 1 2933.4 322)">Black</text>
  <line id="" style="fill:none;stroke:black;opacity:1;stroke-width:0.5;" x1="263" x2="3036" y1="1903" y2="1903"/>
  <g id="" transform="matrix(1 0 0 1 263 1933)">
   <path d="M 9.24805 0.830078 C 13.5547 0.830078 17.1387 -2.74414 17.1387 -7.05078 C 17.1387 -11.3574 13.5449 -14.9316 9.23828 -14.9316 C 4.94141 -14.9316 1.36719 -11.3574 1.36719 -7.05078 C 1.36719 -2.74414 4.95117 0.830078 9.24805 0.830078 Z M 9.24805 -0.654297 C 5.70312 -0.654297 2.87109 -3.49609 2.87109 -7.05078 C 2.87109 -10.6055 5.69336 -13.4473 9.23828 -13.4473 C 12.793 -13.4473 15.6348 -10.6055 15.6445 -7.05078 C 15.6543 -3.49609 12.8027 -0.654297 9.24805 -0.654297 Z M 9.22852 -3.42773 C 9.69727 -3.42773 9.9707 -3.74023 9.9707 -4.25781 L 9.9707 -6.31836 L 12.1973 -6.31836 C 12.6953 -6.31836 13.0371 -6.57227 13.0371 -7.04102 C 13.0371 -7.51953 12.7148 -7.7832 12.1973 -7.7832 L 9.9707 -7.7832 L 9.9707 -10.0098 C 9.9707 -10.5273 9.69727 -10.8496 9.22852 -10.8496 C 8.75977 -10.8496 8.50586 -10.5078 8.50586 -10.0098 L 8.50586 -7.7832 L 6.29883 -7.7832 C 5.78125 -7.7832 5.44922 -7.51953 5.44922 -7.04102 C 5.44922 -6.57227 5.80078 -6.31836 6.29883 -6.31836 L 8.50586 -6.31836 L 8.50586 -4.25781 C 8.50586 -3.75977 8.75977 -3.42773 9.22852 -3.42773 Z"/>
  </g>
  <g id="" transform="matrix(1 0 0 1 281.506 1933)">
   <path d="M 11.709 2.91016 C 17.1484 2.91016 21.6699 -1.60156 21.6699 -7.05078 C 21.6699 -12.4902 17.1387 -17.0117 11.6992 -17.0117 C 6.25 -17.0117 1.74805 -12.4902 1.74805 -7.05078 C 1.74805 -1.60156 6.25977 2.91016 11.709 2.91016 Z M 11.709 1.25 C 7.09961 1.25 3.41797 -2.44141 3.41797 -7.05078 C 3.41797 -11.6504 7.08984 -15.3516 11.6992 -15.3516 C 16.2988 -15.3516 20 -11.6504 20.0098 -7.05078 C 20.0195 -2.44141 16.3086 1.25 11.709 1.25 Z M 11.6797 -2.41211 C 12.207 -2.41211 12.5195 -2.77344 12.5195 -3.33984 L 12.5195 -6.23047 L 15.5762 -6.23047 C 16.123 -6.23047 16.5039 -6.51367 16.5039 -7.03125 C 16.5039 -7.55859 16.1426 -7.86133 15.5762 -7.86133 L 12.5195 -7.86133 L 12.5195 -10.9277 C 12.5195 -11.5039 12.207 -11.8555 11.6797 -11.8555 C 11.1621 -11.8555 10.8789 -11.4844 10.8789 -10.9277 L 10.8789 -7.86133 L 7.83203 -7.86133 C 7.25586 -7.86133 6.89453 -7.55859 6.89453 -7.03125 C 6.89453 -6.51367 7.28516 -6.23047 7.83203 -6.23047 L 10.8789 -6.23047 L 10.8789 -3.33984 C 10.8789 -2.79297 11.1621 -2.41211 11.6797 -2.41211 Z"/>
  </g>
  <g id="" transform="matrix(1 0 0 1 304.914 1933)">
   <path d="M 14.9707 5.67383 C 21.9336 5.67383 27.6855 -0.078125 27.6855 -7.04102 C 27.6855 -14.0039 21.9238 -19.7559 14.9609 -19.7559 C 7.99805 -19.7559 2.25586 -14.0039 2.25586 -7.04102 C 2.25586 -0.078125 8.00781 5.67383 14.9707 5.67383 Z M 14.9707 3.85742 C 8.92578 3.85742 4.08203 -1.00586 4.08203 -7.04102 C 4.08203 -13.0762 8.91602 -17.9395 14.9609 -17.9395 C 20.9961 -17.9395 25.8594 -13.0762 25.8691 -7.04102 C 25.8789 -1.00586 21.0059 3.85742 14.9707 3.85742 Z M 14.9414 -1.06445 C 15.5176 -1.06445 15.8594 -1.45508 15.8594 -2.06055 L 15.8594 -6.13281 L 20.0977 -6.13281 C 20.6934 -6.13281 21.1133 -6.46484 21.1133 -7.02148 C 21.1133 -7.59766 20.7227 -7.93945 20.0977 -7.93945 L 15.8594 -7.93945 L 15.8594 -12.1875 C 15.8594 -12.8027 15.5176 -13.1934 14.9414 -13.1934 C 14.3848 -13.1934 14.0625 -12.7832 14.0625 -12.1875 L 14.0625 -7.93945 L 9.82422 -7.93945 C 9.20898 -7.93945 8.80859 -7.59766 8.80859 -7.02148 C 8.80859 -6.46484 9.23828 -6.13281 9.82422 -6.13281 L 14.0625 -6.13281 L 14.0625 -2.06055 C 14.0625 -1.47461 14.3848 -1.06445 14.9414 -1.06445 Z"/>
  </g>
  <text style="stroke:none;fill:black;font-family:-apple-system,&quot;SF Pro Display&quot;,&quot;SF Pro Text&quot;,Helvetica,sans-serif;font-weight:bold;" transform="matrix(1 0 0 1 263 1953)">Design Variations</text>
  <text style="stroke:none;fill:black;font-family:-apple-system,&quot;SF Pro Display&quot;,&quot;SF Pro Text&quot;,Helvetica,sans-serif;" transform="matrix(1 0 0 1 263 1971)">Symbols are supported in up to nine weights and three scales.</text>
  <text style="stroke:none;fill:black;font-family:-apple-system,&quot;SF Pro Display&quot;,&quot;SF Pro Text&quot;,Helvetica,sans-serif;" transform="matrix(1 0 0 1 263 1989)">For optimal layout with text and other symbols, vertically align</text>
  <text style="stroke:none;fill:black;font-family:-apple-system,&quot;SF Pro Display&quot;,&quot;SF Pro Text&quot;,Helvetica,sans-serif;" transform="matrix(1 0 0 1 263 2007)">symbols with the adjacent text.</text>
  <rect height="14" id="" style="fill:#00AEEF;stroke:none;opacity:0.4;" width="3" x="776" y="1919"/>
  <g id="" transform="matrix(1 0 0 1 779 1933)">
   <path d="M 10.957 0 L 12.8027 0 L 7.60742 -14.0918 L 5.86914 -14.0918 L 0.673828 0 L 2.51953 0 L 3.93555 -4.0332 L 9.54102 -4.0332 Z M 6.66016 -11.8164 L 6.81641 -11.8164 L 9.02344 -5.52734 L 4.45312 -5.52734 Z"/>
  </g>
  <rect height="14" id="" style="fill:#00AEEF;stroke:none;opacity:0.4;" width="3" x="792.477" y="1919"/>
  <text style="stroke:none;fill:black;font-family:-apple-system,&quot;SF Pro Display&quot;,&quot;SF Pro Text&quot;,Helvetica,sans-serif;font-weight:bold;" transform="matrix(1 0 0 1 776 1953)">Side Bearings</text>
  <text style="stroke:none;fill:black;font-family:-apple-system,&quot;SF Pro Display&quot;,&quot;SF Pro Text&quot;,Helvetica,sans-serif;" transform="matrix(1 0 0 1 776 1971)">Horizontal padding on the left and right side of each symbol</text>
  <text style="stroke:none;fill:black;font-family:-apple-system,&quot;SF Pro Display&quot;,&quot;SF Pro Text&quot;,Helvetica,sans-serif;" transform="matrix(1 0 0 1 776 1989)">can be adjusted by modifying the width of the blue rectangles.</text>
  <text style="stroke:none;fill:black;font-family:-apple-system,&quot;SF Pro Display&quot;,&quot;SF Pro Text&quot;,Helvetica,sans-serif;" transform="matrix(1 0 0 1 776 2007)">Modifications are automatically applied proportionally to all</text>
  <text style="stroke:none;fill:black;font-family:-apple-system,&quot;SF Pro Display&quot;,&quot;SF Pro Text&quot;,Helvetica,sans-serif;" transform="matrix(1 0 0 1 776 2025)">scales and weights.</text>
  <g id="" transform="matrix(1 0 0 1 1289 1933)">
   <path d="M 2.96875 2.35352 L 3.80859 3.19336 C 4.84375 4.22852 6.12305 4.15039 7.19727 2.97852 L 16.1621 -6.82617 C 16.5527 -6.74805 16.9629 -6.8457 17.4902 -7.02148 C 18.1738 -7.25586 18.2715 -7.25586 18.3887 -7.13867 C 18.5352 -7.01172 18.4863 -6.89453 18.2422 -6.25 C 17.8809 -5.33203 17.8125 -4.79492 18.5547 -4.02344 L 19.4238 -3.13477 C 20.2734 -2.24609 21.3281 -2.26562 22.2168 -3.14453 L 25.0586 -5.97656 C 25.9473 -6.86523 25.957 -7.92969 25.0781 -8.7793 L 24.1797 -9.64844 C 23.4082 -10.4004 22.8711 -10.3516 21.9629 -9.98047 C 21.3184 -9.72656 21.2012 -9.6875 21.0645 -9.81445 C 20.9375 -9.93164 20.9473 -10.0391 21.1816 -10.7129 C 21.5332 -11.6895 21.5723 -12.2852 20.752 -13.0957 L 19.3359 -14.5117 C 15.1953 -18.6133 11.2305 -18.7402 7.65625 -15.4395 C 7.08008 -14.9023 6.99219 -14.1504 7.53906 -13.6133 L 7.79297 -13.3594 C 8.22266 -12.9297 8.86719 -12.8418 9.41406 -13.1152 C 11.0645 -13.9453 12.2559 -14.0234 13.457 -12.9785 L 13.0273 -11.416 C 12.8516 -10.8008 12.793 -10.3418 12.9199 -9.93164 L 3.18359 -1.04492 C 2.02148 0.0292969 1.93359 1.32812 2.96875 2.35352 Z M 8.96484 -14.4922 C 8.89648 -14.5703 8.86719 -14.6582 8.99414 -14.7559 C 11.709 -17.2852 15.0391 -16.8457 18.3496 -13.5254 L 19.6973 -12.168 C 20.0879 -11.7773 20.0977 -11.582 19.8828 -10.8691 C 19.6582 -10.127 19.502 -9.53125 20.1465 -8.88672 C 20.8105 -8.22266 21.2891 -8.41797 22.207 -8.63281 C 22.9004 -8.79883 23.0664 -8.79883 23.4473 -8.41797 L 24.0918 -7.77344 C 24.4043 -7.48047 24.4141 -7.32422 24.0723 -6.97266 L 21.2207 -4.13086 C 20.8887 -3.79883 20.7227 -3.79883 20.4297 -4.10156 L 19.7852 -4.75586 C 19.4141 -5.13672 19.4141 -5.30273 19.5801 -6.01562 C 19.7852 -6.88477 19.9805 -7.38281 19.3262 -8.04688 C 18.6719 -8.7207 18.0762 -8.57422 17.3438 -8.33008 C 16.5625 -8.06641 16.3281 -8.06641 15.8984 -8.49609 L 14.6094 -9.78516 C 14.1699 -10.2246 14.1309 -10.4395 14.2676 -10.9082 L 15.0293 -13.3984 C 13.3887 -15.2832 11.4941 -15.5566 9.20898 -14.4434 C 9.11133 -14.3945 9.04297 -14.4141 8.96484 -14.4922 Z M 3.96484 1.36719 C 3.52539 0.927734 3.54492 0.537109 4.14062 -0.00976562 L 13.7402 -8.81836 L 15 -7.55859 L 6.17188 2.02148 C 5.625 2.60742 5.24414 2.64648 4.79492 2.19727 Z"/>
  </g>
  <text style="stroke:none;fill:black;font-family:-apple-system,&quot;SF Pro Display&quot;,&quot;SF Pro Text&quot;,Helvetica,sans-serif;font-weight:bold;" transform="matrix(1 0 0 1 1289 1953)">Exporting</text>
  <text style="stroke:none;fill:black;font-family:-apple-system,&quot;SF Pro Display&quot;,&quot;SF Pro Text&quot;,Helvetica,sans-serif;" transform="matrix(1 0 0 1 1289 1971)">Symbols should be outlined when exporting to ensure the</text>
  <text style="stroke:none;fill:black;font-family:-apple-system,&quot;SF Pro Display&quot;,&quot;SF Pro Text&quot;,Helvetica,sans-serif;" transform="matrix(1 0 0 1 1289 1989)">design is preserved when submitting to Xcode.</text>
  <text id="template-version" style="stroke:none;fill:black;font-family:-apple-system,&quot;SF Pro Display&quot;,&quot;SF Pro Text&quot;,Helvetica,sans-serif;text-anchor:end;" transform="matrix(1 0 0 1 3036 1933)">Template v.0.1</text>
  <text style="stroke:none;fill:black;font-family:-apple-system,&quot;SF Pro Display&quot;,&quot;SF Pro Text&quot;,Helvetica,sans-serif;text-anchor:end;" transform="matrix(1 0 0 1 3036 1951)">Generated from </text>
  <text style="stroke:none;fill:black;font-family:-apple-system,&quot;SF Pro Display&quot;,&quot;SF Pro Text&quot;,Helvetica,sans-serif;text-anchor:end;" transform="matrix(1 0 0 1 3036 1969)">Typeset at 100 points</text>
 </g>
 <g fill="#000000" id="Symbols" transform="matrix(1 0 0 1 0 0)">
  <g fill-rule="nonzero" id="Ultralight-S" transform="matrix(1 0 0 1 536.948 627)">
   <path d="M 5.3555 67.4375 L 40.1211 67.4375 C 43.0996 67.4375 44.6621 65.8262 44.7109 62.8477 L 44.7598 60.6016 C 44.9551 51.5684 33.6758 41.3145 28.5977 37.2617 C 27.1816 36.1387 26.6934 35.0645 26.6934 33.7949 C 26.6934 32.5254 27.1328 31.5977 28.5977 30.3281 C 33.627 25.9336 44.7109 16.168 44.7109 7.0859 L 44.7109 4.8398 C 44.7109 1.8613 43.0996 0.25 40.1211 0.25 L 5.3555 0.25 C 2.377 0.25 0.76562 1.8613 0.76562 4.8398 L 0.76562 7.0859 C 0.76562 16.168 11.8496 25.9824 16.9277 30.3281 C 18.3926 31.5977 18.832 32.5254 18.832 33.7949 C 18.832 35.0645 18.3438 36.1387 16.9277 37.2617 C 11.8496 41.3145 0.76562 51.5684 0.76562 60.6016 L 0.76562 62.8477 C 0.76562 65.8262 2.377 67.4375 5.3555 67.4375 Z M 5.7949 10.0156 L 39.7305 10.0156 C 41 10.0156 40.9023 11.0898 40.3164 12.3105 C 37.0449 19.1953 24.3008 30.3281 22.7383 30.3281 C 21.2246 30.3281 8.627 19.4883 5.209 12.3105 C 4.623 11.0898 4.5254 10.0156 5.7949 10.0156 Z" id="Shape"/>
  </g>
  <g fill-rule="nonzero" id="Thin-S" transform="matrix(1 0 0 1 832.927 626)">
   <path d="M 5.6973 68.8769 L 41.1465 68.8769 C 44.3691 68.8769 46.1758 67.1191 46.1758 63.7988 L 46.2246 61.8945 C 46.3711 52.4219 35.0918 42.6562 30.0625 38.457 C 28.6465 37.2852 28.1094 36.1621 28.1094 34.7949 C 28.1094 33.3789 28.6465 32.4023 30.0625 31.084 C 35.043 26.5918 46.1758 17.3145 46.1758 7.7441 L 46.1758 5.8398 C 46.1758 2.5195 44.3691 0.7617 41.1465 0.7617 L 5.6973 0.7617 C 2.5234 0.7617 0.76562 2.5195 0.76562 5.7422 L 0.76562 7.7441 C 0.76562 17.3145 11.8984 26.6406 16.9277 31.084 C 18.3438 32.4023 18.8809 33.3789 18.8809 34.7949 C 18.8809 36.1621 18.3438 37.2852 16.9277 38.457 C 11.8984 42.6562 0.76562 52.4219 0.76562 61.8945 L 0.76562 63.9453 C 0.76562 67.1191 2.5234 68.8769 5.6973 68.8769 Z M 6.4297 11.0156 L 40.5605 11.0156 C 41.8789 11.0156 41.8789 12.1387 41.2441 13.4082 C 37.9238 20.0977 25.4727 30.9375 23.5195 30.9375 C 21.5176 30.9375 9.2129 20.3906 5.7461 13.4082 C 5.1113 12.1387 5.1113 11.0156 6.4297 11.0156 Z" id="Shape"/>
  </g>
  <g fill-rule="nonzero" id="Light-S" transform="matrix(1 0 0 1 1128.2 625)">
   <path d="M 6.4297 70.707 L 43.1484 70.707 C 46.8594 70.707 49.0566 68.7051 49.0566 64.75 L 49.1057 63.5293 C 49.1543 53.2754 37.875 44.3887 32.9434 39.8477 C 31.5273 38.5781 30.8926 37.4062 30.8926 35.7461 C 30.8926 34.1348 31.5273 33.0117 32.9434 31.6934 C 37.875 27.0059 49.0566 18.6562 49.0566 8.0117 L 49.0566 6.8887 C 49.0566 2.9336 46.8594 0.8828 43.1484 0.8828 L 6.4297 0.8828 C 2.7676 0.8828 0.76562 2.9336 0.76562 6.5957 L 0.76562 8.0117 C 0.76562 18.6562 11.9961 27.0059 16.9277 31.6934 C 18.3438 33.0117 18.9785 34.1348 18.9785 35.7461 C 18.9785 37.4062 18.2949 38.5781 16.9277 39.8477 C 11.9961 44.3887 0.76562 53.2754 0.76562 63.5293 L 0.76562 65.043 C 0.76562 68.7051 2.7676 70.707 6.4297 70.707 Z M 7.6504 12.0156 L 42.1719 12.0156 C 43.6367 12.0156 43.7832 13.1387 43.002 14.6523 C 39.584 21 27.7676 31.1562 24.9355 31.1562 C 22.1035 31.1562 10.3359 21.1465 6.8691 14.6523 C 6.0879 13.1387 6.2344 12.0156 7.6504 12.0156 Z" id="Shape"/>
  </g>
  <g fill-rule="nonzero" id="Regular-S" transform="matrix(1 0 0 1 1423.83 625)">
   <path d="M 6.9668 71.3906 L 44.6621 71.3906 C 48.7637 71.3906 51.2539 69.0957 51.2539 64.7012 L 51.2539 64.0176 C 51.2539 53.1289 39.9746 44.9258 35.0918 40.1406 C 33.7246 38.7734 32.9434 37.5527 32.9434 35.7461 C 32.9434 33.9395 33.7246 32.7188 35.0918 31.3516 C 39.9746 26.5664 51.2539 18.9004 51.2539 7.4746 L 51.2539 6.8887 C 51.2539 2.4941 48.7637 0.1992 44.6621 0.1992 L 6.9668 0.1992 C 2.9629 0.1992 0.76562 2.4941 0.76562 6.4492 L 0.76562 7.4746 C 0.76562 18.9004 12.0449 26.5664 16.9277 31.3516 C 18.2949 32.7188 19.0762 33.9395 19.0762 35.7461 C 19.0762 37.5527 18.2949 38.7734 16.9277 40.1406 C 12.0449 44.9258 0.76562 53.1289 0.76562 64.0176 L 0.76562 65.1406 C 0.76562 69.0957 2.9629 71.3906 6.9668 71.3906 Z M 8.627 12.0156 L 43.4414 12.0156 C 44.9062 12.0156 45.248 13.1875 44.3203 14.8477 C 40.8535 20.9023 29.5254 30.5703 26.0098 30.5703 C 22.4941 30.5703 11.166 20.9512 7.6992 14.8477 C 6.7715 13.1875 7.1133 12.0156 8.627 12.0156 Z" id="Shape"/>
  </g>
  <g fill-rule="nonzero" id="Medium-S" transform="matrix(1 0 0 1 1720.16 624)">
   <path d="M 7.3086 72.9766 L 45.1504 72.9766 C 49.4961 72.9766 52.0352 70.584 52.0352 66.1894 L 52.0352 65.2617 C 52.0352 54.2754 40.4141 45.877 35.873 41.3359 C 34.457 39.9199 33.627 38.6992 33.627 36.7461 C 33.627 34.793 34.457 33.6211 35.873 32.1562 C 40.4141 27.6641 52.0352 19.6562 52.0352 8.2793 L 52.0352 7.4004 C 52.0352 3.0059 49.4961 0.6133 45.1504 0.6133 L 7.3086 0.6133 C 3.0605 0.6133 0.76562 3.0059 0.76562 7.0586 L 0.76562 8.2793 C 0.76562 19.6562 12.3867 27.6152 16.9277 32.1562 C 18.3438 33.6211 19.1738 34.793 19.1738 36.7461 C 19.1738 38.6992 18.3438 39.9199 16.9277 41.3359 C 12.3867 45.877 0.76562 54.2754 0.76562 65.2617 L 0.76562 66.5312 C 0.76562 70.584 3.0605 72.9766 7.3086 72.9766 Z M 9.2617 12.5762 L 43.5391 12.5762 C 45.0039 12.5762 45.2969 13.6992 44.418 15.4082 C 41.0488 21.3652 29.7695 31.0332 26.4004 31.0332 C 23.0312 31.0332 11.8496 21.3164 8.3828 15.4082 C 7.4551 13.748 7.7969 12.5762 9.2617 12.5762 Z" id="Shape"/>
  </g>
  <g fill-rule="nonzero" id="Semibold-S" transform="matrix(1 0 0 1 2016.57 624)">
   <path d="M 7.5527 73.416 L 45.541 73.416 C 50.0332 73.416 52.6211 70.9258 52.6211 66.5801 L 52.6211 65.4082 C 52.6211 54.373 40.707 45.7793 36.4102 41.5312 C 34.9941 40.0664 34.1152 38.7969 34.1152 36.7461 C 34.1152 34.6953 34.9941 33.5234 36.4102 32.0098 C 40.707 27.7129 52.6211 19.4609 52.6211 8.1328 L 52.6211 7.0098 C 52.6211 2.6641 50.0332 0.1738 45.541 0.1738 L 7.5527 0.1738 C 3.1582 0.1738 0.76562 2.6641 0.76562 6.7656 L 0.76562 8.1328 C 0.76562 19.4609 12.6797 27.7129 16.9277 32.0098 C 18.3926 33.5234 19.2227 34.6953 19.2227 36.7461 C 19.2227 38.7969 18.3438 40.0664 16.9277 41.5312 C 12.6797 45.7793 0.76562 54.373 0.76562 65.4082 L 0.76562 66.8242 C 0.76562 70.9258 3.1582 73.416 7.5527 73.416 Z M 9.7988 12.2344 L 43.5879 12.2344 C 45.0527 12.2344 45.3945 13.3574 44.4668 15.0176 C 41.1953 20.9258 29.916 30.6426 26.6934 30.6426 C 23.4707 30.6426 12.3379 20.8281 8.9199 15.0176 C 7.9434 13.4062 8.334 12.2344 9.7988 12.2344 Z" id="Shape"/>
  </g>
  <g fill-rule="nonzero" id="Bold-S" transform="matrix(1 0 0 1 2312.89 623)">
   <path d="M 7.9434 75.0019 L 46.0781 75.0019 C 50.7656 75.0019 53.4023 72.4141 53.4023 68.0684 L 53.4023 66.6523 C 53.4023 55.5684 41.0977 46.7305 37.1914 42.7266 C 35.7266 41.2129 34.75 39.9434 34.75 37.7949 C 34.75 35.5977 35.6777 34.377 37.1914 32.8145 C 41.0977 28.8105 53.4023 20.168 53.4023 8.9375 L 53.4023 7.5215 C 53.4023 3.1758 50.7656 0.5879 46.0781 0.5879 L 7.9434 0.5879 C 3.2559 0.5879 0.76562 3.1758 0.76562 7.375 L 0.76562 8.9375 C 0.76562 20.168 13.0703 28.8105 16.9277 32.8145 C 18.4414 34.4258 19.3691 35.5977 19.3691 37.7949 C 19.3691 39.9434 18.3926 41.2129 16.9277 42.7266 C 13.0215 46.7305 0.76562 55.5684 0.76562 66.6523 L 0.76562 68.2148 C 0.76562 72.4141 3.2559 75.0019 7.9434 75.0019 Z M 10.4824 12.7461 L 43.6855 12.7461 C 45.1504 12.7461 45.4434 13.918 44.5645 15.5293 C 41.3418 21.3398 30.1602 31.1055 27.084 31.1055 C 24.0078 31.1055 13.0703 21.1934 9.6035 15.5293 C 8.627 13.9668 9.0176 12.7461 10.4824 12.7461 Z" id="Shape"/>
  </g>
  <g fill-rule="nonzero" id="Heavy-S" transform="matrix(1 0 0 1 2609.04 622)">
   <path d="M 8.4316 76.832 L 46.8594 76.832 C 51.8398 76.832 54.5254 74.0977 54.5254 69.7519 L 54.5254 67.9453 C 54.5254 56.8125 41.6836 47.6328 38.3145 44.0195 C 36.8008 42.457 35.7266 41.1875 35.7266 38.7949 C 35.7266 36.4023 36.752 35.1816 38.3145 33.5703 C 41.6836 29.957 54.5254 20.7773 54.5254 9.6445 L 54.5254 7.7891 C 54.5254 3.4922 51.8398 0.7578 46.8594 0.7578 L 8.4316 0.7578 C 3.4512 0.7578 0.76562 3.4922 0.76562 7.7891 L 0.76562 9.6445 C 0.76562 20.7773 13.6074 29.9082 16.9277 33.5703 C 18.4902 35.2305 19.5156 36.4023 19.5156 38.7949 C 19.5156 41.1875 18.4414 42.457 16.9277 44.0195 C 13.5586 47.6328 0.76562 56.8125 0.76562 67.9453 L 0.76562 69.7519 C 0.76562 74.0977 3.4512 76.832 8.4316 76.832 Z M 11.459 13.1113 L 43.832 13.1113 C 45.248 13.1113 45.5898 14.2344 44.7109 15.8457 C 41.6348 21.5098 30.502 31.3242 27.6211 31.3242 C 24.7891 31.3242 14.0469 21.2168 10.5801 15.8457 C 9.6035 14.332 10.043 13.1113 11.459 13.1113 Z" id="Shape"/>
  </g>
  <g fill-rule="nonzero" id="Black-S" transform="matrix(1 0 0 1 2905.27 621)">
   <path d="M 8.8711 78.6133 L 47.543 78.6133 C 52.7676 78.6133 55.502 75.6836 55.502 71.3867 L 55.502 69.2383 C 55.502 58.0078 42.2207 48.5352 39.291 45.3125 C 37.7285 43.6523 36.5566 42.334 36.5566 39.7949 C 36.5566 37.2559 37.6797 36.0352 39.291 34.3262 C 42.2207 31.1035 55.502 21.4355 55.502 10.4004 L 55.502 8.1543 C 55.502 3.9062 52.7676 0.9766 47.543 0.9766 L 8.8711 0.9766 C 3.5977 0.9766 0.76562 3.9062 0.76562 8.252 L 0.76562 10.4004 C 0.76562 21.4355 14.0957 31.0059 16.9277 34.3262 C 18.5391 36.084 19.6621 37.2559 19.6621 39.7949 C 19.6621 42.334 18.4902 43.6523 16.9277 45.3125 C 14.0469 48.5352 0.76562 58.0078 0.76562 69.2383 L 0.76562 71.2402 C 0.76562 75.6836 3.5977 78.6133 8.8711 78.6133 Z M 12.3379 13.5254 L 43.9297 13.5254 C 45.3457 13.5254 45.6875 14.6484 44.8086 16.2109 C 41.8301 21.7773 30.7949 31.5918 28.1582 31.5918 C 25.4727 31.5918 14.9258 21.3867 11.459 16.2109 C 10.4824 14.7461 10.9219 13.5254 12.3379 13.5254 Z" id="Shape"/>
  </g>
  <g fill-rule="nonzero" id="Ultralight-M" transform="matrix(1 0 0 1 531.452 1048)">
   <path d="M 6.1641 85.5684 L 50.3047 85.5684 C 54.0156 85.5684 55.9199 83.6152 55.9688 79.9043 L 56.0664 76.8769 C 56.3105 65.5 41.9062 52.2188 35.4121 47.1406 C 33.6055 45.7246 32.9707 44.3574 32.9707 42.7949 C 32.9707 41.2324 33.5566 40.0605 35.4121 38.4492 C 41.8574 32.834 55.9688 20.2363 55.9688 8.8594 L 55.9688 5.832 C 55.9688 2.1211 54.0156 0.168 50.3047 0.168 L 6.1641 0.168 C 2.4531 0.168 0.4512 2.1211 0.4512 5.832 L 0.4512 8.8594 C 0.4512 20.2363 14.6113 32.9316 21.1055 38.4492 C 22.9609 40.0605 23.498 41.2324 23.498 42.7949 C 23.498 44.3574 22.9121 45.7246 21.1055 47.1406 C 14.6113 52.2188 0.4512 65.5 0.4512 76.8769 L 0.4512 79.8555 C 0.4512 83.6152 2.4531 85.5684 6.1641 85.5684 Z M 6.6523 12.4727 L 49.8652 12.4727 C 51.4766 12.4727 51.2812 13.8398 50.5977 15.3047 C 46.4473 24.1914 30.041 38.5469 28.2344 38.5469 C 26.4766 38.5469 10.2656 24.6309 5.9199 15.3047 C 5.2363 13.8398 5.041 12.4727 6.6523 12.4727 Z" id="Shape"/>
  </g>
  <g fill-rule="nonzero" id="Thin-M" transform="matrix(1 0 0 1 827.333 1047)">
   <path d="M 6.6035 87.0566 L 51.4277 87.0566 C 55.4805 87.0566 57.6289 84.9082 57.6777 80.8555 L 57.7266 78.2188 C 57.9219 66.4023 43.5176 53.6582 37.0723 48.3848 C 35.2656 46.8711 34.582 45.5039 34.582 43.7949 C 34.582 42.0859 35.2168 40.8652 37.0723 39.2051 C 43.4688 33.4922 57.6777 21.4316 57.6777 9.4688 L 57.6777 6.832 C 57.6777 2.7793 55.4805 0.6309 51.4277 0.6309 L 6.6035 0.6309 C 2.5996 0.6309 0.4512 2.7793 0.4512 6.7832 L 0.4512 9.4688 C 0.4512 21.4316 14.6602 33.541 21.1055 39.2051 C 22.9609 40.8652 23.5957 42.0859 23.5957 43.7949 C 23.5957 45.5039 22.9121 46.8711 21.1055 48.3848 C 14.6602 53.6582 0.4512 66.4023 0.4512 78.2188 L 0.4512 80.9531 C 0.4512 84.9082 2.5996 87.0566 6.6035 87.0566 Z M 7.3359 13.4727 L 50.793 13.4727 C 52.502 13.4727 52.4043 14.8398 51.623 16.4512 C 47.4238 25.0938 31.3594 39.1074 29.0645 39.1074 C 26.8184 39.1074 10.9004 25.4844 6.5547 16.4512 C 5.7734 14.8398 5.6758 13.4727 7.3359 13.4727 Z" id="Shape"/>
  </g>
  <g fill-rule="nonzero" id="Light-M" transform="matrix(1 0 0 1 1122.43 1046)">
   <path d="M 7.3848 89.0332 L 53.7227 89.0332 C 58.2637 89.0332 60.9004 86.543 60.9004 81.8066 L 60.9492 79.9512 C 61.0957 67.1582 46.6914 55.4883 40.3438 49.8242 C 38.5371 48.2129 37.707 46.748 37.707 44.7461 C 37.707 42.793 38.5371 41.4258 40.3438 39.7168 C 46.6426 33.8086 60.9004 22.7734 60.9004 9.6387 L 60.9004 7.8809 C 60.9004 3.0957 58.2637 0.6055 53.7227 0.6055 L 7.3848 0.6055 C 2.8926 0.6055 0.4512 3.0957 0.4512 7.5879 L 0.4512 9.6387 C 0.4512 22.7734 14.7578 33.8574 21.1055 39.7168 C 22.9121 41.4258 23.6934 42.793 23.6934 44.7461 C 23.6934 46.748 22.8633 48.2129 21.1055 49.8242 C 14.7578 55.4883 0.4512 67.1582 0.4512 79.9512 L 0.4512 82.0996 C 0.4512 86.543 2.8926 89.0332 7.3848 89.0332 Z M 8.752 14.4727 L 52.6484 14.4727 C 54.4551 14.4727 54.5527 15.8887 53.625 17.7441 C 49.3281 25.9961 33.9473 39.2285 30.7246 39.2285 C 27.4531 39.2285 12.1699 26.1914 7.7754 17.7441 C 6.8477 15.8887 6.9941 14.4727 8.752 14.4727 Z" id="Shape"/>
  </g>
  <g id="Regular-M" transform="matrix(1 0 0 1 1408.9 1046)">
   <path d="M 33.1233 89.5509 C 33.1233 89.5509 36.8102 90.4692 40.3103 89.6795 C 40.4195 89.6549 40.5479 89.6089 40.6487 89.5065 C 40.7584 89.354 40.7426 89.354 40.764 89.1645 C 41.2653 84.7543 47.0174 52.7426 54.6354 38.0509 C 56.7382 33.1938 57.7698 32.5489 60.5077 32.408 C 72.6091 31.2592 79.7507 23.8428 79.7507 11.0879 C 79.8697 10.0175 79.8831 7.37092 80.4026 4.61204 C 80.8833 2.05956 82.0229 0.172612 79.6423 1.13993 C 76.5871 2.26858 74.8309 1.99669 69.8713 2.27891 C 62.3742 2.70532 47.6126 8.68771 47.9216 26.0324 C 47.9804 29.5687 48.7842 28.1677 49.7706 26.9521 C 50.3955 26.1821 50.9809 25.4141 51.6594 24.4879 C 51.7708 24.3358 57.3728 16.1041 62.253 13.9276 C 64.1042 13.1021 64.5575 13.838 63.721 14.6934 C 53.8812 24.9717 44.9936 43.1901 39.7841 63.2104 C 39.1387 65.76 36.8829 72.2106 35.154 64.7945 C 34.4398 61.7312 31.0711 37.5343 20.4634 20.0039 C 12.8372 7.39993 2.01163 0.688692 2.01163 0.688692 C 2.01163 0.688692 0.633422 -0.119057 0.287896 0.0150182 C -0.345605 0.26075 0.81062 1.44699 0.996257 1.67228 C 1.10573 1.80481 3.94372 4.71732 4.29509 5.18769 C 6.42212 7.84348 22.7752 22.0695 31.7851 84.2701 C 32.3097 87.8921 32.387 88.0003 32.4876 88.5058 C 32.585 88.9957 32.5999 89.2502 32.7741 89.4272 C 32.8667 89.5215 33.1233 89.5509 33.1233 89.5509 Z" id="Path"/>
  </g>
  <g fill-rule="nonzero" id="Medium-M" transform="matrix(1 0 0 1 1714.07 1045)">
   <path d="M 8.4102 91.4492 L 56.1641 91.4492 C 61.4375 91.4492 64.4649 88.5684 64.4649 83.2461 L 64.4649 81.7812 C 64.5137 68.1582 49.7676 57.0742 43.8594 51.4102 C 42.0527 49.6523 41.0273 48.0898 41.0273 45.7461 C 41.0273 43.4023 42.0039 41.9375 43.8594 40.1309 C 49.7676 34.3691 64.4649 23.8223 64.4649 9.7598 L 64.4649 8.3926 C 64.4649 3.0703 61.4375 0.1895 56.1641 0.1895 L 8.4102 0.1895 C 3.2832 0.1895 0.4512 3.0703 0.4512 8.0508 L 0.4512 9.7598 C 0.4512 23.8223 15.1973 34.3691 21.1055 40.1309 C 22.9121 41.9375 23.8887 43.4023 23.8887 45.7461 C 23.8887 48.0898 22.8633 49.6523 21.1055 51.4102 C 15.1973 57.0742 0.4512 68.1582 0.4512 81.7812 L 0.4512 83.5879 C 0.4512 88.5684 3.2832 91.4492 8.4102 91.4492 Z M 10.6074 14.9844 L 54.3086 14.9844 C 56.1641 14.9844 56.5059 16.4492 55.3828 18.5 C 51.1348 26.2637 36.3887 38.9102 32.4824 38.9102 C 28.5273 38.9102 13.9277 26.3125 9.5332 18.5 C 8.4102 16.498 8.8008 14.9844 10.6074 14.9844 Z" id="Shape"/>
  </g>
  <g fill-rule="nonzero" id="Semibold-M" transform="matrix(1 0 0 1 2010.39 1044)">
   <path d="M 8.752 92.9863 L 56.7012 92.9863 C 62.1699 92.9863 65.295 89.959 65.295 84.5879 L 65.295 83.0254 C 65.3438 69.2559 50.3047 58.0742 44.6406 52.6055 C 42.834 50.7988 41.7598 49.2363 41.7598 46.7461 C 41.7598 44.3047 42.7852 42.791 44.6406 40.9355 C 50.3047 35.3691 65.295 24.6758 65.295 10.5645 L 65.295 9.002 C 65.295 3.6309 62.1699 0.6523 56.7012 0.6523 L 8.752 0.6523 C 3.3809 0.6523 0.4512 3.6309 0.4512 8.709 L 0.4512 10.5645 C 0.4512 24.6758 15.4902 35.3691 21.1055 40.9355 C 22.9609 42.791 23.9863 44.3047 23.9863 46.7461 C 23.9863 49.2363 22.9121 50.7988 21.1055 52.6055 C 15.4902 58.0742 0.4512 69.2559 0.4512 83.0254 L 0.4512 84.8809 C 0.4512 89.959 3.3809 92.9863 8.752 92.9863 Z M 11.2422 15.6426 L 54.5039 15.6426 C 56.3594 15.6426 56.7012 17.1074 55.627 19.1582 C 51.3789 26.8242 36.7793 39.4219 32.873 39.4219 C 28.9668 39.4219 14.5625 26.7754 10.168 19.1582 C 9.0449 17.1562 9.3867 15.6426 11.2422 15.6426 Z" id="Shape"/>
  </g>
  <g fill-rule="nonzero" id="Bold-M" transform="matrix(1 0 0 1 2306.54 1043)">
   <path d="M 9.1914 94.6699 L 57.4336 94.6699 C 63.1953 94.6699 66.3692 91.4961 66.3692 86.0762 L 66.3692 84.3184 C 66.418 70.4023 50.9883 59.0742 45.7148 53.8496 C 43.8594 51.9941 42.7363 50.4316 42.7363 47.7949 C 42.7363 45.1582 43.8594 43.6445 45.7148 41.6914 C 50.9883 36.418 66.3692 25.4316 66.3692 11.2715 L 66.3692 9.5137 C 66.3692 4.0938 63.1953 0.9688 57.4336 0.9688 L 9.1914 0.9688 C 3.5273 0.9688 0.4512 4.0938 0.4512 9.2695 L 0.4512 11.2715 C 0.4512 25.4316 15.8809 36.418 21.1055 41.6914 C 22.9609 43.6445 24.084 45.1582 24.084 47.7949 C 24.084 50.4316 22.9609 51.9941 21.1055 53.8496 C 15.832 59.0742 0.4512 70.4023 0.4512 84.3184 L 0.4512 86.3203 C 0.4512 91.4961 3.5273 94.6699 9.1914 94.6699 Z M 12.0723 16.1543 L 54.7969 16.1543 C 56.6035 16.1543 56.9941 17.6191 55.8711 19.6699 C 51.7207 27.2383 37.2676 39.7871 33.4102 39.7871 C 29.6016 39.7871 15.3926 27.0918 10.9492 19.6699 C 9.8262 17.668 10.2168 16.1543 12.0723 16.1543 Z" id="Shape"/>
  </g>
  <g fill-rule="nonzero" id="Heavy-M" transform="matrix(1 0 0 1 2602.47 1042)">
   <path d="M 9.7773 96.6465 L 58.5078 96.6465 C 64.6113 96.6465 67.9316 93.2773 67.9316 87.8086 L 67.9805 85.709 C 67.9805 71.6465 52.0137 60.0742 47.2773 55.2402 C 45.373 53.2383 44.1035 51.6758 44.1035 48.7949 C 44.1035 45.9141 45.3242 44.4004 47.2773 42.3496 C 52.0137 37.4668 67.9316 26.0898 67.9316 11.8809 L 67.9316 9.7324 C 67.9316 4.3125 64.6113 0.9434 58.5078 0.9434 L 9.7773 0.9434 C 3.7227 0.9434 0.4512 4.3125 0.4512 9.6836 L 0.4512 11.8809 C 0.4512 26.0898 16.4668 37.418 21.1055 42.3496 C 23.0586 44.4492 24.2793 45.9141 24.2793 48.7949 C 24.2793 51.6758 23.0098 53.2383 21.1055 55.2402 C 16.418 60.0742 0.4512 71.6465 0.4512 85.709 L 0.4512 87.9062 C 0.4512 93.2773 3.7227 96.6465 9.7773 96.6465 Z M 13.2441 16.5195 L 55.1387 16.5195 C 56.9941 16.5195 57.3848 17.9355 56.2617 19.9863 C 52.2578 27.3594 37.9512 39.9082 34.1914 39.9082 C 30.4805 39.9082 16.5645 27.1152 12.1699 19.9863 C 10.9492 18.0332 11.4375 16.5195 13.2441 16.5195 Z" id="Shape"/>
  </g>
  <g fill-rule="nonzero" id="Black-M" transform="matrix(1 0 0 1 2898.48 1042)">
   <path d="M 10.3633 97.5742 L 59.4844 97.5742 C 65.9297 97.5742 69.3477 94.0098 69.3477 88.4434 L 69.3477 86.0996 C 69.3477 71.8418 52.9414 60.0742 48.6934 55.582 C 46.7402 53.4824 45.373 51.8711 45.373 48.7949 C 45.373 45.7188 46.6914 44.1562 48.6934 42.0566 C 52.9414 37.5156 69.3477 25.748 69.3477 11.4902 L 69.3477 9.0977 C 69.3477 3.6289 65.9297 0.0645 59.4844 0.0645 L 10.3633 0.0645 C 3.918 0.0645 0.4512 3.6289 0.4512 9.0977 L 0.4512 11.4902 C 0.4512 25.748 16.9551 37.4668 21.1055 42.0566 C 23.1074 44.2539 24.4258 45.7188 24.4258 48.7949 C 24.4258 51.8711 23.0098 53.4824 21.1055 55.582 C 16.9062 60.0742 0.4512 71.8418 0.4512 86.0996 L 0.4512 88.4434 C 0.4512 94.0098 3.918 97.5742 10.3633 97.5742 Z M 14.3184 15.8848 L 55.4805 15.8848 C 57.2871 15.8848 57.7266 17.3496 56.6035 19.4004 C 52.6973 26.5781 38.5859 39.0781 34.9238 39.0781 C 31.2617 39.0781 17.6387 26.2363 13.1953 19.4004 C 11.9746 17.4473 12.5117 15.8848 14.3184 15.8848 Z" id="Shape"/>
  </g>
  <g fill-rule="nonzero" id="Ultralight-L" transform="matrix(1 0 0 1 524.124 1466)">
   <path d="M 7.2422 109.775 L 63.8828 109.775 C 68.5215 109.775 70.9141 107.334 71.0117 102.695 L 71.0605 98.5938 C 71.4512 84.1406 52.8477 66.8066 44.4492 60.3125 C 42.1055 58.5059 41.373 56.748 41.373 54.7949 C 41.373 52.8906 42.0566 51.377 44.4492 49.3262 C 52.75 42.1484 71.0117 25.5957 71.0117 11.1914 L 71.0117 7.1387 C 71.0117 2.5 68.5215 0.0098 63.8828 0.0098 L 7.2422 0.0098 C 2.5547 0.0098 0.0645 2.5 0.0645 7.1875 L 0.0645 11.1914 C 0.0645 25.5957 18.3262 42.1973 26.7246 49.3262 C 29.1172 51.377 29.8008 52.8906 29.8008 54.7949 C 29.8008 56.748 29.0195 58.5059 26.7246 60.3125 C 18.3262 66.8066 0.0645 84.1406 0.0645 98.5938 L 0.0645 102.647 C 0.0645 107.334 2.5547 109.775 7.2422 109.775 Z M 7.7305 15.6348 L 63.4434 15.6348 C 65.4941 15.6348 65.2012 17.3926 64.3711 19.248 C 59 30.8203 37.6621 49.5215 35.5625 49.5215 C 33.5117 49.5215 12.418 31.4062 6.8027 19.248 C 5.9727 17.3926 5.6797 15.6348 7.7305 15.6348 Z" id="Shape"/>
  </g>
  <g fill-rule="nonzero" id="Thin-L" transform="matrix(1 0 0 1 819.908 1465)">
   <path d="M 7.7305 111.361 L 65.1523 111.361 C 70.1816 111.361 72.7695 108.676 72.8672 103.647 L 72.916 100.033 C 73.2578 85.043 54.6543 68.2949 46.3047 61.5566 C 44.0098 59.7012 43.1309 57.8945 43.1309 55.7949 C 43.1309 53.6953 43.9121 52.1328 46.3047 50.0332 C 54.6055 42.7578 72.8672 26.791 72.8672 11.752 L 72.8672 8.1387 C 72.8672 3.1094 70.1816 0.4238 65.1523 0.4238 L 7.7305 0.4238 C 2.75 0.4238 0.0645 3.1094 0.0645 8.0898 L 0.0645 11.752 C 0.0645 26.791 18.375 42.8066 26.7246 50.0332 C 29.1172 52.1328 29.8496 53.6953 29.8496 55.7949 C 29.8496 57.8945 29.0195 59.7012 26.7246 61.5566 C 18.375 68.2949 0.0645 85.043 0.0645 100.033 L 0.0645 103.695 C 0.0645 108.676 2.75 111.361 7.7305 111.361 Z M 8.5605 16.6348 L 64.4688 16.6348 C 66.6172 16.6348 66.4219 18.4414 65.4941 20.4434 C 60.0742 31.7227 39.127 49.9844 36.4902 49.9844 C 33.9023 49.9844 13.1504 32.2598 7.5352 20.4434 C 6.6074 18.4414 6.4121 16.6348 8.5605 16.6348 Z" id="Shape"/>
  </g>
  <g fill-rule="nonzero" id="Light-L" transform="matrix(1 0 0 1 1114.81 1464)">
   <path d="M 8.6094 113.436 L 67.6914 113.436 C 73.3066 113.436 76.4805 110.359 76.5293 104.549 L 76.5781 101.814 C 76.7734 85.75 58.1699 70.1738 49.918 63.0449 C 47.623 61.043 46.6465 59.1875 46.6465 56.7949 C 46.6465 54.3535 47.5742 52.6445 49.918 50.4961 C 58.1211 42.9766 76.5293 28.2305 76.5293 11.8242 L 76.5293 9.1387 C 76.5293 3.3281 73.3066 0.3008 67.6914 0.3008 L 8.6094 0.3008 C 3.0918 0.3008 0.0645 3.3281 0.0645 8.8945 L 0.0645 11.8242 C 0.0645 28.2305 18.4727 43.0254 26.7246 50.4961 C 29.0684 52.6445 29.9961 54.3535 29.9961 56.7949 C 29.9961 59.1875 29.0195 61.043 26.7246 63.0449 C 18.4727 70.1738 0.0645 85.75 0.0645 101.814 L 0.0645 104.842 C 0.0645 110.359 3.0918 113.436 8.6094 113.436 Z M 10.123 17.6348 L 66.5195 17.6348 C 68.7656 17.6348 68.8633 19.4902 67.7402 21.7363 C 62.2227 32.5762 42.0566 50.0078 38.2969 50.0078 C 34.5859 50.0078 14.5664 32.918 8.9023 21.7363 C 7.7793 19.4902 7.877 17.6348 10.123 17.6348 Z" id="Shape"/>
  </g>
  <g fill-rule="nonzero" id="Regular-L" transform="matrix(1 0 0 1 1410.16 1463)">
   <path d="M 9.293 115.217 L 69.5957 115.217 C 75.6992 115.217 79.2148 111.897 79.2637 105.5 L 79.3129 103.449 C 79.4102 86.6035 60.8555 71.8574 52.6523 64.4355 C 50.4062 62.3359 49.2832 60.4316 49.2832 57.7461 C 49.2832 55.1094 50.3574 53.3027 52.6523 51.1055 C 60.8066 43.3906 79.2637 29.5234 79.2637 12.1406 L 79.2637 10.1875 C 79.2637 3.7422 75.6992 0.4707 69.5957 0.4707 L 9.293 0.4707 C 3.3359 0.4707 0.0645 3.7422 0.0645 9.748 L 0.0645 12.1406 C 0.0645 29.5234 18.5215 43.4395 26.7246 51.1055 C 29.0195 53.3027 30.0938 55.1094 30.0938 57.7461 C 30.0938 60.4316 28.9707 62.3359 26.7246 64.4355 C 18.5215 71.8574 0.0645 86.6035 0.0645 103.449 L 0.0645 105.939 C 0.0645 111.897 3.3359 115.217 9.293 115.217 Z M 11.2949 18.6348 L 68.082 18.6348 C 70.4258 18.6348 70.6699 20.4902 69.4004 22.9805 C 63.834 33.4785 44.2539 50.2754 39.6641 50.2754 C 35.123 50.2754 15.6406 33.6738 9.9766 22.9805 C 8.707 20.4902 8.9512 18.6348 11.2949 18.6348 Z" id="Shape"/>
  </g>
  <g fill-rule="nonzero" id="Medium-L" transform="matrix(1 0 0 1 1706.13 1462)">
   <path d="M 9.8301 116.998 L 70.6211 116.998 C 77.0176 116.998 80.7285 113.482 80.7285 106.939 L 80.7777 104.791 C 80.875 87.7012 61.9785 73.0039 54.1172 65.7285 C 51.8223 63.5312 50.6504 61.627 50.6504 58.7461 C 50.6504 55.9141 51.7734 54.0586 54.1172 51.8125 C 61.9297 44.3418 80.7285 30.377 80.7285 12.7988 L 80.7285 10.6992 C 80.7285 4.1562 77.0176 0.6895 70.6211 0.6895 L 9.8301 0.6895 C 3.5312 0.6895 0.0645 4.1562 0.0645 10.3086 L 0.0645 12.7988 C 0.0645 30.377 18.9121 44.3418 26.7246 51.8125 C 29.0684 54.0586 30.1914 55.9141 30.1914 58.7461 C 30.1914 61.627 29.0195 63.5312 26.7246 65.7285 C 18.9121 73.0039 0.0645 87.7012 0.0645 104.791 L 0.0645 107.33 C 0.0645 113.482 3.5312 116.998 9.8301 116.998 Z M 12.2227 19.2441 L 68.6191 19.2441 C 70.9629 19.2441 71.2559 21.0996 69.9375 23.5898 C 64.4199 33.8926 45.084 50.5918 40.4453 50.5918 C 35.7578 50.5918 16.5684 34.0391 10.9043 23.5898 C 9.5859 21.0996 9.8789 19.2441 12.2227 19.2441 Z" id="Shape"/>
  </g>
  <g fill-rule="nonzero" id="Semibold-L" transform="matrix(1 0 0 1 2002.28 1462)">
   <path d="M 10.2207 117.584 L 71.4023 117.584 C 78.043 117.584 81.8516 113.971 81.9008 107.281 L 81.9008 105.084 C 81.998 87.75 62.8086 73.1016 55.2891 65.9727 C 52.9453 63.7266 51.6758 61.7734 51.6758 58.7461 C 51.6758 55.7676 52.8965 53.9121 55.2891 51.5684 C 62.8086 44.293 81.9008 30.2793 81.9008 12.5059 L 81.9008 10.3574 C 81.9008 3.7168 78.043 0.0547 71.4023 0.0547 L 10.2207 0.0547 C 3.6777 0.0547 0.0645 3.7168 0.0645 10.0156 L 0.0645 12.5059 C 0.0645 30.2793 19.2051 44.293 26.7246 51.5684 C 29.0684 53.9121 30.2891 55.7676 30.2891 58.7461 C 30.2891 61.7734 29.0195 63.7266 26.7246 65.9727 C 19.1562 73.1016 0.0645 87.75 0.0645 105.084 L 0.0645 107.672 C 0.0645 113.971 3.6777 117.584 10.2207 117.584 Z M 12.9551 18.9023 L 69.0098 18.9023 C 71.3535 18.9023 71.6953 20.7578 70.377 23.2969 C 64.9082 33.502 45.7188 50.0547 40.9824 50.0547 C 36.2949 50.0547 17.3008 33.502 11.6367 23.2969 C 10.2207 20.8066 10.6113 18.9023 12.9551 18.9023 Z" id="Shape"/>
  </g>
  <g fill-rule="nonzero" id="Bold-L" transform="matrix(1 0 0 1 2298.24 1461)">
   <path d="M 10.709 119.365 L 72.4277 119.365 C 79.4102 119.365 83.3652 115.557 83.3652 108.721 L 83.4142 106.475 C 83.4629 88.8965 63.9316 74.1992 56.7539 67.2656 C 54.4102 64.9219 53.043 62.9688 53.043 59.7949 C 53.043 56.6211 54.3613 54.668 56.7539 52.2754 C 63.9316 45.2441 83.3652 31.084 83.3652 13.1152 L 83.3652 10.918 C 83.3652 4.1309 79.4102 0.2734 72.4277 0.2734 L 10.709 0.2734 C 3.8242 0.2734 0.0645 4.1309 0.0645 10.5762 L 0.0645 13.1152 C 0.0645 31.084 19.5469 45.1953 26.7246 52.2754 C 29.1172 54.7168 30.4355 56.6211 30.4355 59.7949 C 30.4355 62.9688 29.0684 64.9219 26.7246 67.2656 C 19.5469 74.1992 0.0645 88.8965 0.0645 106.475 L 0.0645 109.062 C 0.0645 115.557 3.8242 119.365 10.709 119.365 Z M 13.9316 19.4629 L 69.5469 19.4629 C 71.8906 19.4629 72.2812 21.3672 70.9141 23.9551 C 65.4941 33.916 46.5488 50.3223 41.7637 50.3223 C 36.9297 50.3223 18.2285 33.8672 12.5645 23.9551 C 11.0996 21.416 11.5879 19.4629 13.9316 19.4629 Z" id="Shape"/>
  </g>
  <g fill-rule="nonzero" id="Heavy-L" transform="matrix(1 0 0 1 2593.88 1460)">
   <path d="M 11.4902 121.488 L 73.8926 121.488 C 81.4121 121.488 85.5621 117.387 85.5621 110.356 L 85.5621 108.012 C 85.611 90.043 65.5918 75.3945 58.9023 68.7051 C 56.5098 66.2637 54.9961 64.2129 54.9961 60.7949 C 54.9961 57.3281 56.4609 55.375 58.9023 52.8359 C 65.5918 46.1465 85.5621 31.8887 85.5621 13.5781 L 85.5621 11.2344 C 85.5621 4.252 81.4121 0.1504 73.8926 0.1504 L 11.4902 0.1504 C 4.0684 0.1504 0.0645 4.252 0.0645 10.9902 L 0.0645 13.5781 C 0.0645 31.8887 20.084 46.0977 26.7246 52.8359 C 29.166 55.4238 30.6309 57.3281 30.6309 60.7949 C 30.6309 64.2129 29.1172 66.2637 26.7246 68.7051 C 20.084 75.3945 0.0645 90.043 0.0645 108.012 L 0.0645 110.6 C 0.0645 117.387 4.0684 121.488 11.4902 121.488 Z M 15.3477 19.877 L 70.2793 19.877 C 72.6719 19.877 73.1602 21.7324 71.7441 24.3691 C 66.4219 34.0859 47.7695 50.2969 42.8379 50.2969 C 37.8574 50.2969 19.5957 33.8906 13.9316 24.3691 C 12.418 21.8301 13.0039 19.877 15.3477 19.877 Z" id="Shape"/>
  </g>
  <g fill-rule="nonzero" id="Black-L" transform="matrix(1 0 0 1 2889.61 1459)">
   <path d="M 12.1738 123.514 L 75.2598 123.514 C 83.1699 123.514 87.516 119.168 87.516 111.941 L 87.516 109.5 C 87.516 91.1406 67.0566 76.541 60.8066 70.0957 C 58.4141 67.5566 56.7539 65.5059 56.7539 61.7949 C 56.7539 58.084 58.3164 56.082 60.8066 53.4941 C 67.0566 47.0488 87.516 32.6445 87.516 14.0898 L 87.516 11.6484 C 87.516 4.4707 83.1699 0.125 75.2598 0.125 L 12.1738 0.125 C 4.3125 0.125 0.0645 4.4707 0.0645 11.4531 L 0.0645 14.0898 C 0.0645 32.6445 20.5723 47 26.7246 53.4941 C 29.166 56.1309 30.7773 58.084 30.7773 61.7949 C 30.7773 65.5059 29.1172 67.5566 26.7246 70.0957 C 20.5234 76.541 0.0645 91.1406 0.0645 109.5 L 0.0645 112.137 C 0.0645 119.168 4.3125 123.514 12.1738 123.514 Z M 16.6172 20.291 L 70.9629 20.291 C 73.3555 20.291 73.9414 22.1953 72.4766 24.8809 C 67.2031 34.3535 48.8926 50.3691 43.8145 50.3691 C 38.7363 50.3691 20.8652 34.0117 15.1523 24.8809 C 13.541 22.293 14.2246 20.291 16.6172 20.291 Z" id="Shape"/>
  </g>
 </g>
 <g id="Guides" transform="matrix(1 0 0 1 0 0)">
  <g fill="#27AAE1" fill-rule="nonzero" id="H-reference" transform="matrix(1 0 0 1 339 625)">
   <path d="M 54.9316 71 L 57.666 71 L 30.5664 0.541 L 28.0762 0.541 L 0.976562 71 L 3.66211 71 L 12.9395 46.5371 L 45.7031 46.5371 L 54.9316 71 Z M 29.1992 3.9102 L 29.4434 3.9102 L 44.8242 44.291 L 13.8184 44.291 L 29.1992 3.9102 Z" id="Shape"/>
  </g>
  <g fill="#27AAE1" fill-rule="nonzero" id="H-reference" transform="matrix(1 0 0 1 339 1055)">
   <path d="M 54.9316 71 L 57.666 71 L 30.5664 0.541 L 28.0762 0.541 L 0.976562 71 L 3.66211 71 L 12.9395 46.5371 L 45.7031 46.5371 L 54.9316 71 Z M 29.1992 3.9102 L 29.4434 3.9102 L 44.8242 44.291 L 13.8184 44.291 L 29.1992 3.9102 Z" id="Shape"/>
  </g>
  <g fill="#27AAE1" fill-rule="nonzero" id="H-reference" transform="matrix(1 0 0 1 339 1485)">
   <path d="M 54.9316 71 L 57.666 71 L 30.5664 0.541 L 28.0762 0.541 L 0.976562 71 L 3.66211 71 L 12.9395 46.5371 L 45.7031 46.5371 L 54.9316 71 Z M 29.1992 3.9102 L 29.4434 3.9102 L 44.8242 44.291 L 13.8184 44.291 L 29.1992 3.9102 Z" id="Shape"/>
  </g>
  <rect fill="#00AEEF" fill-rule="nonzero" height="119.336" id="left-margin" opacity="0.4" transform="matrix(1 0 0 1 263 625)" width="12.4512" x="1142.9" y="405.79"/>
  <rect fill="#00AEEF" fill-rule="nonzero" height="119.336" id="right-margin" opacity="0.4" transform="matrix(1 0 0 1 263 625)" width="12.4999" x="1218.29" y="405.79"/>
  <line id="Baseline-S" style="fill:none;stroke:#27AAE1;opacity:1;stroke-width:0.577;" x1="263" x2="3036" y1="696" y2="696"/>
  <line id="Baseline-M" style="fill:none;stroke:#27AAE1;opacity:1;stroke-width:0.577;" x1="263" x2="3036" y1="1126" y2="1126"/>
  <line id="Baseline-L" style="fill:none;stroke:#27AAE1;opacity:1;stroke-width:0.577;" x1="263" x2="3036" y1="1556" y2="1556"/>
  <line id="Capline-S" style="fill:none;stroke:#27AAE1;opacity:1;stroke-width:0.577;" x1="263" x2="3036" y1="625.541" y2="625.541"/>
  <line id="Capline-M" style="fill:none;stroke:#27AAE1;opacity:1;stroke-width:0.577;" x1="263" x2="3036" y1="1055.54" y2="1055.54"/>
  <line id="Capline-L" style="fill:none;stroke:#27AAE1;opacity:1;stroke-width:0.577;" x1="263" x2="3036" y1="1485.54" y2="1485.54"/>
 </g>
</svg>
